<svg xmlns="http://www.w3.org/2000/svg" version="1.1" xmlns:xlink="http://www.w3.org/1999/xlink" xmlns:svgjs="http://svgjs.com/svgjs" width="1427.06" height="1427.07"><svg xmlns="http://www.w3.org/2000/svg" id="SvgjsSvg1000" data-name="Layer 1" viewBox="379.41 228.19 1427.06 1427.07"><defs><style>.cls-1,.cls-2{fill:none;stroke-miterlimit:10;}.cls-1{stroke:#959695;stroke-width:56.77px;}.cls-2{stroke:#f7941d;stroke-width:35px;}.cls-3{fill:#f7941d;}</style></defs><title>Hardcaml_stacked logo_nobackground_notext</title><rect class="cls-1" x="659.89" y="510.22" width="866.1" height="866.1" rx="81.97"></rect><line class="cls-1" x1="744.96" y1="507.12" x2="744.96" y2="256.57"></line><line class="cls-1" x1="884.15" y1="507.12" x2="884.15" y2="256.57"></line><line class="cls-1" x1="1023.35" y1="507.12" x2="1023.35" y2="256.57"></line><line class="cls-1" x1="1162.54" y1="507.12" x2="1162.54" y2="256.57"></line><line class="cls-1" x1="1301.74" y1="507.12" x2="1301.74" y2="256.57"></line><line class="cls-1" x1="1440.93" y1="507.12" x2="1440.93" y2="256.57"></line><line class="cls-1" x1="744.96" y1="1626.87" x2="744.96" y2="1376.32"></line><line class="cls-1" x1="884.15" y1="1626.87" x2="884.15" y2="1376.32"></line><line class="cls-1" x1="1023.35" y1="1626.87" x2="1023.35" y2="1376.32"></line><line class="cls-1" x1="1162.54" y1="1626.87" x2="1162.54" y2="1376.32"></line><line class="cls-1" x1="1301.74" y1="1626.87" x2="1301.74" y2="1376.32"></line><line class="cls-1" x1="1440.93" y1="1626.87" x2="1440.93" y2="1376.32"></line><line class="cls-1" x1="1527.54" y1="593.73" x2="1778.09" y2="593.73"></line><line class="cls-1" x1="1527.54" y1="732.93" x2="1778.09" y2="732.93"></line><line class="cls-1" x1="1527.54" y1="872.12" x2="1778.09" y2="872.12"></line><line class="cls-1" x1="1527.54" y1="1011.32" x2="1778.09" y2="1011.32"></line><line class="cls-1" x1="1527.54" y1="1150.51" x2="1778.09" y2="1150.51"></line><line class="cls-1" x1="1527.54" y1="1289.71" x2="1778.09" y2="1289.71"></line><line class="cls-1" x1="407.8" y1="593.73" x2="658.35" y2="593.73"></line><line class="cls-1" x1="407.8" y1="732.93" x2="658.35" y2="732.93"></line><line class="cls-1" x1="407.8" y1="872.12" x2="658.35" y2="872.12"></line><line class="cls-1" x1="407.8" y1="1011.32" x2="658.35" y2="1011.32"></line><line class="cls-1" x1="407.8" y1="1150.51" x2="658.35" y2="1150.51"></line><line class="cls-1" x1="407.8" y1="1289.71" x2="658.35" y2="1289.71"></line><polyline class="cls-2" points="866.71 692.69 951.15 692.69 951.15 944.23 1338.76 944.23"></polyline><line class="cls-2" x1="1083.34" y1="780.73" x2="1083.34" y2="1160.55"></line><line class="cls-2" x1="1224.2" y1="780.73" x2="1224.2" y2="1160.55"></line><path class="cls-3" d="M843.13,670a22.69,22.69,0,1,1-22.69,22.69A22.69,22.69,0,0,1,843.13,670m0-35a57.69,57.69,0,1,0,57.68,57.69A57.76,57.76,0,0,0,843.13,635Z"></path><path class="cls-3" d="M1082.4,736a22.69,22.69,0,1,1-22.69,22.68A22.69,22.69,0,0,1,1082.4,736m0-35a57.69,57.69,0,1,0,57.68,57.68A57.75,57.75,0,0,0,1082.4,701Z"></path><path class="cls-3" d="M1224,736a22.69,22.69,0,1,1-22.68,22.68A22.68,22.68,0,0,1,1224,736m0-35a57.69,57.69,0,1,0,57.68,57.68A57.75,57.75,0,0,0,1224,701Z"></path><path class="cls-3" d="M1082.4,1159.76a22.69,22.69,0,1,1-22.69,22.68,22.69,22.69,0,0,1,22.69-22.68m0-35a57.69,57.69,0,1,0,57.68,57.68,57.75,57.75,0,0,0-57.68-57.68Z"></path><path class="cls-3" d="M1224,1159.76a22.69,22.69,0,1,1-22.68,22.68,22.68,22.68,0,0,1,22.68-22.68m0-35a57.69,57.69,0,1,0,57.68,57.68,57.75,57.75,0,0,0-57.68-57.68Z"></path><path class="cls-3" d="M1361,921.66a22.69,22.69,0,1,1-22.68,22.68A22.68,22.68,0,0,1,1361,921.66m0-35a57.69,57.69,0,1,0,57.68,57.68A57.75,57.75,0,0,0,1361,886.66Z"></path></svg><style>@media (prefers-color-scheme: light) { :root { filter: none; } }
</style></svg>